<svg width="69" height="69" viewBox="0 0 69 69" fill="none" xmlns="http://www.w3.org/2000/svg">
<g clip-path="url(#clip0_66_347)">
<path d="M34.3901 67.9392C15.717 67.9392 0.580566 52.8028 0.580566 34.1297C0.580566 15.4565 15.717 0.320068 34.3901 0.320068C53.0633 0.320068 68.1997 15.4565 68.1997 34.1297C68.1997 52.8028 53.0633 67.9392 34.3901 67.9392Z" fill="white" stroke="#EA580D" stroke-width="0.625834" stroke-miterlimit="10"/>
<path d="M29.8197 52.2498H37.1114V33.9696H42.2053L42.7439 27.8568H37.1114V24.3783C37.1114 22.9374 37.4024 22.3698 38.7996 22.3698H42.7439V16.0242H37.6935C32.2648 16.0242 29.8197 18.4111 29.8197 22.9957V27.8713H26.021V34.0715H29.8197V52.2643V52.2498Z" fill="#EA580D"/>
</g>
<defs>
<clipPath id="clip0_66_347">
<rect width="68.2596" height="68.2596" fill="white" transform="translate(0.259766)"/>
</clipPath>
</defs>
</svg>
