<svg width="69" height="69" viewBox="0 0 69 69" fill="none" xmlns="http://www.w3.org/2000/svg">
<g clip-path="url(#clip0_66_338)">
<path d="M34.1299 67.9392C15.4568 67.9392 0.320312 52.8028 0.320312 34.1297C0.320312 15.4565 15.4568 0.320068 34.1299 0.320068C52.803 0.320068 67.9395 15.4565 67.9395 34.1297C67.9395 52.8028 52.803 67.9392 34.1299 67.9392Z" fill="white" stroke="#EA580D" stroke-width="0.625834" stroke-miterlimit="10"/>
<path d="M25.8925 27.4202H19.6924V47.4614H25.8925V27.4202Z" fill="#EA580D"/>
<path d="M22.7629 24.8003C24.7859 24.8003 26.4306 23.1411 26.4306 21.1035C26.4306 19.0659 24.7859 17.4067 22.7629 17.4067C20.7398 17.4067 19.0952 19.0659 19.0952 21.1035C19.0952 23.1411 20.7398 24.8003 22.7629 24.8003Z" fill="#EA580D"/>
<path d="M35.8179 36.9531C35.8179 34.1296 37.1133 32.4559 39.602 32.4559C41.8871 32.4559 42.9786 34.0714 42.9786 36.9531V47.4759H49.1496V34.7846C49.1496 29.414 46.1078 26.8234 41.858 26.8234C37.6081 26.8234 35.8179 30.1417 35.8179 30.1417V27.4346H29.8652V47.4759H35.8179V36.9531Z" fill="#EA580D"/>
</g>
<defs>
<clipPath id="clip0_66_338">
<rect width="68.2596" height="68.2596" fill="white"/>
</clipPath>
</defs>
</svg>
