<svg width="69" height="69" viewBox="0 0 69 69" fill="none" xmlns="http://www.w3.org/2000/svg">
<g clip-path="url(#clip0_66_352)">
<path d="M34.6494 67.9392C15.9763 67.9392 0.839844 52.8028 0.839844 34.1297C0.839844 15.4565 15.9763 0.320068 34.6494 0.320068C53.3226 0.320068 68.459 15.4565 68.459 34.1297C68.459 52.8028 53.3226 67.9392 34.6494 67.9392Z" fill="white" stroke="#EA580D" stroke-width="0.625834" stroke-miterlimit="10"/>
<path d="M39.0156 30.331C39.5687 30.331 40.3401 30.0399 41.126 29.1084V30.2H42.9453V20.3759H41.126V27.8276C40.9077 28.1042 40.4129 28.5699 40.049 28.5699C39.656 28.5699 39.5687 28.3079 39.5687 27.915V20.3759H37.7349V28.5845C37.7349 29.5596 38.026 30.3455 39.0156 30.3455V30.331Z" fill="#EA580D"/>
<path d="M30.8799 27.7402C30.8799 29.4722 31.7822 30.3746 33.5579 30.3746C35.0279 30.3746 36.1776 29.3994 36.1776 27.7402V22.9228C36.1776 21.38 35.0279 20.2885 33.5579 20.2885C31.9423 20.2885 30.8799 21.3509 30.8799 22.9228V27.7402ZM32.7574 23.0829C32.7574 22.5444 33.0048 22.1514 33.5142 22.1514C34.0673 22.1514 34.3147 22.5444 34.3147 23.0829V27.6529C34.3147 28.1914 34.0382 28.5844 33.5433 28.5844C33.0485 28.5844 32.7428 28.1769 32.7428 27.6529V23.0829H32.7574Z" fill="#EA580D"/>
<path d="M26.5286 30.1854H28.5808V24.7858L30.9822 16.8683H28.8864L27.562 22.1952L26.1502 16.8683H24.0835L26.5286 24.7858V30.1854Z" fill="#EA580D"/>
<path d="M45.4199 32.4268H23.8796C21.5655 32.4268 19.688 34.3043 19.688 36.6184V47.1993C19.688 49.5135 21.5655 51.391 23.8796 51.391H45.4199C47.7341 51.391 49.6116 49.5135 49.6116 47.1993V36.6184C49.6116 34.3043 47.7341 32.4268 45.4199 32.4268ZM26.7468 48.2618H24.782V37.4189H22.7589V35.5705H28.7699V37.4189H26.7468V48.2618ZM33.7183 48.2618H31.9718V47.2285C31.6516 47.6069 31.3169 47.898 30.9676 48.1017C30.0361 48.6402 28.7407 48.6257 28.7407 46.7336V38.918H30.4873V46.0932C30.4873 46.4716 30.5746 46.7191 30.953 46.7191C31.2877 46.7191 31.768 46.2824 31.9718 46.0205V38.918H33.7183V48.2764V48.2618ZM40.4133 46.3261C40.4133 47.4904 39.9766 48.3782 38.8269 48.3782C38.1865 48.3782 37.6625 48.1454 37.1677 47.5486V48.2618H35.4066V35.5705H37.1677V39.6602C37.5606 39.1799 38.0991 38.787 38.7104 38.787C39.9912 38.787 40.4133 39.864 40.4133 41.1302V46.3261ZM46.8463 43.8082H43.5133V45.5693C43.5133 46.2679 43.5716 46.8792 44.2702 46.8792C44.9688 46.8792 45.0415 46.3843 45.0415 45.5693V44.9143H46.8317V45.6129C46.8317 47.4177 46.0603 48.5092 44.2265 48.5092C42.5673 48.5092 41.7086 47.3012 41.7086 45.6129V41.4067C41.7086 39.7767 42.7856 38.656 44.3575 38.656C46.0312 38.656 46.8317 39.7185 46.8317 41.4067V43.7936L46.8463 43.8082Z" fill="#EA580D"/>
<path d="M44.2987 40.3007C43.6583 40.3007 43.5273 40.7518 43.5273 41.3922V42.3383H45.0701V41.3922C45.0701 40.7518 44.9391 40.3007 44.3133 40.3007H44.2987Z" fill="#EA580D"/>
<path d="M37.5308 40.3588C37.4144 40.4171 37.2834 40.5189 37.167 40.6499V46.4862C37.3125 46.6317 37.4435 46.7482 37.5745 46.8209C37.851 46.9665 38.2731 46.981 38.4623 46.7191C38.5642 46.5881 38.6079 46.3698 38.6079 46.0787V41.2467C38.6079 40.9265 38.5496 40.6936 38.4187 40.5335C38.2149 40.257 37.8219 40.2279 37.5163 40.3734L37.5308 40.3588Z" fill="#EA580D"/>
</g>
<defs>
<clipPath id="clip0_66_352">
<rect width="68.2596" height="68.2596" fill="white" transform="translate(0.519043)"/>
</clipPath>
</defs>
</svg>
